<svg xmlns="http://www.w3.org/2000/svg" width="133.705" height="42.786" viewBox="0 0 133.705 42.786"><defs><style>.a{fill:#fff;}</style></defs><g transform="translate(310.1 -420.677)"><path class="a" d="M-265.216,457.372l1.612-2.233c.028-.041.052-.074.077-.11a18.9,18.9,0,0,0-6.721-1.25c-3.924,0-6.319,1.593-6.325,3.854a2.36,2.36,0,0,0,.6,1.63l.046-.008c-.006-.007-.015-.013-.022-.02a2.628,2.628,0,0,1-.1-.728c.006-2.261,2.4-3.854,6.325-3.854.4,0,.782.017,1.16.041l-3.728,5.742A9.42,9.42,0,0,0-265.216,457.372Z" transform="translate(-22.473 -22.188)"/><path class="a" d="M-259.545,475.466a.32.32,0,0,0,.36.34,1.9,1.9,0,0,0,1.114-.613c1.208-1.047,2.746-3.232,4.868-6.33,1.9-2.77,3.778-5.744,5.085-7.52-.549-.291-1.116-.567-1.675-.825-.623.872-1.3,1.835-1.888,2.706-1.877,2.76-6.741,9.956-7.293,10.893A3.048,3.048,0,0,0-259.545,475.466Z" transform="translate(-33.886 -26.706)"/><path class="a" d="M-234.318,460.2a6.365,6.365,0,0,0,3.471-4.922c0-.9-.356-1.628-1.513-1.628-1.755,0-3.318,1.679-4.326,2.971a15.448,15.448,0,0,1,1.879,1.3l-.437.555a14.6,14.6,0,0,0-1.881-1.289c-1.1,1.469-3.606,5.346-5.335,7.882a6.816,6.816,0,0,1,3.55-1v.7c-3.317.054-5.377,2.287-5.377,4.6,0,1.244.672,2.107,2.461,2.107,4.162,0,7.02-4.459,7.02-7.386,0-1.326-.477-2.508-2.577-2.508h-.974a2.875,2.875,0,0,0-.768.057l.6-.921A10.456,10.456,0,0,0-234.318,460.2Z" transform="translate(-44.114 -22.1)"/><path class="a" d="M-154.431,481.021c-1.178,1.516-2.416,3.723-2.416,4.7,0,.3.148.5.532.5.522,0,1.4-.436,2.62-1.8a29.406,29.406,0,0,0,3.466-4.59.911.911,0,0,0,.132-.447.828.828,0,0,0-.925-.863C-152.047,478.513-153.193,479.428-154.431,481.021Z" transform="translate(-102.723 -38.767)"/><path class="a" d="M-244.927,432.241c.227-.31.415-.563.613-.817l3.1-.133c-.286.394-.8,1.1-1.4,1.935.563.262,1.132.547,1.684.841,1.911-2.427,3.686-3.525,6.006-3.525,2.505,0,3.443,1.451,3.443,2.912a6.734,6.734,0,0,1-1.662,3.734,7.972,7.972,0,0,1-3.679,1.964c-.155.043-.674.155-.674.155a3.253,3.253,0,0,1,2.165,3.168,7.728,7.728,0,0,1-2.043,4.783,33.492,33.492,0,0,0,6.877-6.066c.333-.413.936-1.246,1.245-1.684l2.7-.167s-3.446,5.21-4.19,6.491c-.418.723-.541,1.036-.529,1.31.011.19.151.316.41.316.988,0,3.017-1.767,4.419-3.586.64-.834,2.957-4.348,2.957-4.348l2.744-.17c-2.223,3.413-2.949,4.559-2.949,4.559a13.841,13.841,0,0,0-1.481,2.734c-.16.548-.055.818.32.818.8,0,2.441-1.185,5.077-4.585l.264-.33c1.667-2.12,3.708-3.584,5.9-3.584A2.058,2.058,0,0,1-211.612,440c1.807-2.97,2.935-4.828,3.638-5.989l-34.742-13.336-6.748,10.4A21.117,21.117,0,0,1-244.927,432.241Z" transform="translate(-40.643 0)"/><path class="a" d="M-64.352,478.447a.416.416,0,0,0-.475-.437c-1.229,0-2.818,2.185-4.031,4.4C-66.811,482.082-64.352,480.08-64.352,478.447Z" transform="translate(-161.701 -38.429)"/><path class="a" d="M7.066,478.465c0-.285-.12-.455-.415-.455-1.058,0-2.536,1.609-4.061,4.392C4.634,482.065,7.066,479.974,7.066,478.465Z" transform="translate(-209.592 -38.429)"/><path class="a" d="M-189.92,445.86l-.041-.1-.012,0-.043-.1-.011,0-.042-.1-.01,0-.043-.1-.011.005-.043-.1-.009,0-.043-.1-.012,0-.042-.1-.01.005-.043-.1-.01.005-.043-.1-.028.013,14.017-21.593-68.29,12.037c.164-.271.309-.51.422-.7l-.474-.874-.054.01c-.823,1.376-3.18,5.213-4.01,6.56-1.865,3.037-2.973,4.9-3.69,6.189a6.191,6.191,0,0,0-.881,2.233c0,.269.109.457.43.457.895,0,2.654-1.327,6.317-5.939.331-.421,1.191-1.619,1.493-2.069l2.614-.131c-1.458,2.186-3.47,5.152-4.306,6.718a2.424,2.424,0,0,0-.394,1.018c0,.2.1.383.431.383.993,0,2.838-1.455,5.563-5.3.651-.919,1.167-1.737,1.779-2.679l2.582-.14c-.727,1.163-2.2,3.6-2.353,3.846-1.228,1.995-1.882,3.26-1.882,3.829a.441.441,0,0,0,.494.452c1.714,0,4.449-3.383,5.076-5.2a5.286,5.286,0,0,1,.631-2.914,1.189,1.189,0,0,1,1.03-.544c.406,0,.711.2.711.456a10.2,10.2,0,0,1-1.505,3.469,2.184,2.184,0,0,0,1.5,1.227,11.481,11.481,0,0,1,.64-1.08c2.125-3.112,4.446-3.971,5.983-3.971,1.117,0,1.638.416,1.638,1.278,0,1.3-1.6,3.055-4.1,3.952a9.305,9.305,0,0,1-1.895.468,4.85,4.85,0,0,0-.575,1.924c0,.592.273,1.024,1.123,1.024,2.762,0,6.125-4.192,7.946-6.587.143-.18.85-1.155,1.048-1.481l2.6-.151c-2.157,3.4-2.867,4.568-2.867,4.568a9.985,9.985,0,0,0-1.532,3.111.411.411,0,0,0,.45.468c1.034,0,2.9-1.673,5.666-4.5,1.2-1.227,2.537-2.623,3.326-3.5.278-1.012.808-1.5,1.475-1.5a.735.735,0,0,1,.786.771,1.059,1.059,0,0,1-.969,1.044,3.37,3.37,0,0,0-.03.453c0,.863.128,1.969.128,3.065a4.514,4.514,0,0,1-.826,2.86c1.345-1.08,4.039-3.619,5.65-5.124a6.813,6.813,0,0,1,4.481-2.145c1.047,0,1.657.37,1.657,1.278,0,1.306-1.378,2.782-3.626,3.759a8.986,8.986,0,0,1-2.355.65,4.812,4.812,0,0,0-.6,2.039c0,.576.4.92,1.049.92,1.873,0,3.625-1.994,5.112-3.88,2.361-3,3.468-4.6,5.259-4.6.946,0,1.419.489,1.419,1.189,0,.872-.425,1.6-1.254,3.121,2.789-3.567,4.117-4.291,5.085-4.291.715,0,1.107.346,1.115.821a3.026,3.026,0,0,0-1.975,2.634c0,.446.184.843.735.843a2.043,2.043,0,0,0,.966-.247l.209.505a3.554,3.554,0,0,1-1.684.385,1.594,1.594,0,0,1-1.814-1.624,3.029,3.029,0,0,1,.578-1.64,46.3,46.3,0,0,0-6.02,7.52l-2.607.1c.381-.643,3.021-4.582,4.552-7.348a1.8,1.8,0,0,0,.279-.843.263.263,0,0,0-.287-.289c-.805,0-2.193,1.741-4,4.06-1.322,1.7-3.545,4.636-6.734,4.636-1.693,0-2.413-.891-2.413-2.04a5.858,5.858,0,0,1,.917-2.873c-.805.717-1.539,1.388-2.267,2.044-1.464,1.314-3.421,2.92-5.978,2.92-1.369,0-2.245-.545-2.245-1.323a.614.614,0,0,1,.6-.655.764.764,0,0,1,.715.576,1,1,0,0,0,1.036.774c1.647,0,2.568-1.764,3.186-5.2.1-.535.291-1.505.431-2.152-2.056,2.194-3.47,3.614-4.088,4.223-1.863,1.842-3.711,3.7-5.643,3.7-1.1,0-1.785-.548-1.785-1.479a5.55,5.55,0,0,1,1-2.663c-1.512,1.614-3.947,4.131-6.88,4.131-1.734,0-2.536-.854-2.536-2.141a4.942,4.942,0,0,1,.462-1.916,2.71,2.71,0,0,1-1.6-1.177,16.637,16.637,0,0,1-3.01,3.575,5.584,5.584,0,0,1-3.545,1.655c-1.179.01-1.768-.561-1.768-1.493a5.069,5.069,0,0,1,.7-2.048,14.1,14.1,0,0,1-2.441,2.462,4.738,4.738,0,0,1-2.852,1.091c-.908,0-1.585-.436-1.585-1.416a5.155,5.155,0,0,1,.984-2.419c-1.228,1.353-3.3,3.832-5.572,3.832-1.05,0-1.594-.543-1.594-1.437a4.9,4.9,0,0,1,.63-2.073c-.287.348-.607.707-.813.939-1.617,1.821-3.02,2.58-4.419,2.58a1.547,1.547,0,0,1-1.75-1.6,4.628,4.628,0,0,1,.418-1.632c-1.485,1.592-3.284,3.232-5.085,3.232-1.059,0-1.492-.6-1.492-1.314a4.227,4.227,0,0,1,.589-1.836l-.589.613c-1.3,1.339-2.936,2.527-4.447,2.527-.985,0-1.6-.526-1.6-1.4,0-.7.484-1.844,1.688-3.493l-.8.76c-3.2,3.042-7.522,5.786-11.808,5.786-3.057,0-4.031-1.352-4.031-2.95a4.311,4.311,0,0,1,.076-.724l-.529.706c-1.5,1.907-2.7,2.965-4.171,2.965-1.226,0-2.294-.6-2.294-1.679a4.548,4.548,0,0,1,.869-2.164c1.037-1.709,3.887-5.943,6.04-9.023a10.743,10.743,0,0,1-5.72,1.576c-2.28,0-3.821-.6-4.628-1.6l-.007.005a.507.507,0,0,0,.024.045c.016.032.034.064.052.1s.036.065.053.1.035.065.053.1c.537,1.078,1.767,1.816,3.667,2.045L-310.1,463.695l53.782-8.6,52.731,10.191,12.049-18.559c.053,0,.1.016.155.016a3.561,3.561,0,0,0,1.684-.384l-.21-.505Zm-27.682-7.226a1,1,0,0,1-1.107-1.063,1.7,1.7,0,0,1,1.614-1.721,1.023,1.023,0,0,1,1.065,1.1A1.672,1.672,0,0,1-217.6,438.634Z" transform="translate(0 -1.827)"/></g></svg>